<?xml version="1.0" encoding="UTF-8"?>
<svg width="32px" height="32px" viewBox="0 0 32 32" version="1.1" xmlns="http://www.w3.org/2000/svg" xmlns:xlink="http://www.w3.org/1999/xlink">
    <title>discord_logo</title>
    <g id="首页-定稿" stroke="none" stroke-width="1" fill="none" fill-rule="evenodd">
        <g id="Home-定-new" transform="translate(-1120.000000, -6414.000000)" fill-rule="nonzero">
            <g id="Footer" transform="translate(0.000000, 6382.000000)">
                <g id="编组-2" transform="translate(0.000000, 22.000000)">
                    <g id="discord-logo" transform="translate(1120.000000, 10.000000)">
                        <circle id="ellipse" fill="#8C9EFF" cx="16" cy="16" r="16"></circle>
                        <path d="M23.275,10.54375 C23.275,10.54375 21.19375,8.9125 18.73125,8.725 L18.5125,9.16875 C20.7375,9.7125 21.75625,10.49375 22.825,11.45 C20.9875,10.5125 19.16875,9.63125 16.00625,9.63125 C12.84375,9.63125 11.025,10.5125 9.1875,11.45 C10.25625,10.49375 11.46875,9.625 13.5,9.16875 L13.28125,8.725 C10.7,8.96875 8.7375,10.54375 8.7375,10.54375 C8.7375,10.54375 6.4125,13.91875 6.0125,20.54375 C8.35625,23.25 11.91875,23.26875 11.91875,23.26875 L12.6625,22.275 C11.4,21.8375 9.96875,21.05 8.7375,19.63125 C10.20625,20.74375 12.43125,21.90625 16.0125,21.90625 C19.59375,21.90625 21.8125,20.75 23.2875,19.63125 C22.05625,21.05 20.625,21.8375 19.3625,22.275 L20.10625,23.26875 C20.10625,23.26875 23.66875,23.25 26.0125,20.54375 C25.6,13.91875 23.275,10.54375 23.275,10.54375 Z M13.04375,18.725 C12.1625,18.725 11.45,17.9125 11.45,16.90625 C11.45,15.9 12.1625,15.0875 13.04375,15.0875 C13.925,15.0875 14.6375,15.9 14.6375,16.90625 C14.6375,17.9125 13.925,18.725 13.04375,18.725 Z M18.95625,18.725 C18.075,18.725 17.3625,17.9125 17.3625,16.90625 C17.3625,15.9 18.075,15.0875 18.95625,15.0875 C19.8375,15.0875 20.55,15.9 20.55,16.90625 C20.55,17.9125 19.83125,18.725 18.95625,18.725 Z" id="logo" fill="#FFFFFF"></path>
                    </g>
                </g>
            </g>
        </g>
    </g>
</svg>