<?xml version="1.0" encoding="UTF-8"?>
<svg width="227px" height="67px" viewBox="0 0 227 67" version="1.1" xmlns="http://www.w3.org/2000/svg" xmlns:xlink="http://www.w3.org/1999/xlink">
    <title>btn_base_1</title>
    <defs>
        <linearGradient x1="98.5559339%" y1="53.1006288%" x2="81.7474082%" y2="48.0875869%" id="linearGradient-1">
            <stop stop-color="#FFFFFF" offset="0%"></stop>
            <stop stop-color="#B325FF" stop-opacity="0" offset="100%"></stop>
        </linearGradient>
        <linearGradient x1="100%" y1="50%" x2="-1.70349845e-13%" y2="50%" id="linearGradient-2">
            <stop stop-color="#B721FF" offset="0%"></stop>
            <stop stop-color="#5ADCFE" offset="100%"></stop>
        </linearGradient>
    </defs>
    <g id="首页-定稿" stroke="none" stroke-width="1" fill="none" fill-rule="evenodd">
        <g id="Home-定-new" transform="translate(-120.000000, -476.000000)">
            <g id="文案" transform="translate(120.000000, 272.000000)">
                <g id="btn-base-1" transform="translate(0.000000, 204.000000)">
                    <path d="M28,10 L205,10 C208.777088,10 212.333747,11.7783299 214.6,14.8 L223.6,26.8 C225.157866,28.8771541 226,31.4035574 226,34 L226,54 C226,60.627417 220.627417,66 214,66 L28,66 C21.372583,66 16,60.627417 16,54 L16,22 C16,15.372583 21.372583,10 28,10 Z" id="描边" stroke="url(#linearGradient-1)" stroke-width="2"></path>
                    <g id="btn-1" fill="url(#linearGradient-2)">
                        <path d="M12,0 L189,0 C192.777088,-6.93839743e-16 196.333747,1.77832989 198.6,4.8 L207.6,16.8 C209.157866,18.8771541 210,21.4035574 210,24 L210,44 C210,50.627417 204.627417,56 198,56 L12,56 C5.372583,56 6.14069502e-15,50.627417 0,44 L0,12 C-8.11624501e-16,5.372583 5.372583,1.21743675e-15 12,0 Z" id="矩形"></path>
                    </g>
                </g>
            </g>
        </g>
    </g>
</svg>