<?xml version="1.0" encoding="UTF-8"?>
<svg width="126px" height="36px" viewBox="0 0 126 36" version="1.1" xmlns="http://www.w3.org/2000/svg" xmlns:xlink="http://www.w3.org/1999/xlink">
    <title>logo-36px</title>
    <defs>
        <radialGradient cx="100%" cy="100%" fx="100%" fy="100%" r="143.257939%" gradientTransform="translate(1.000000,1.000000),scale(1.000000,0.944444),rotate(-132.344951),translate(-1.000000,-1.000000)" id="radialGradient-1">
            <stop stop-color="#21D4FD" offset="0%"></stop>
            <stop stop-color="#56B8FE" offset="23.3545722%"></stop>
            <stop stop-color="#7B38FF" offset="71.5311128%"></stop>
            <stop stop-color="#B721FF" offset="100%"></stop>
        </radialGradient>
        <path d="M34,36 L28.4089954,36 L0,36 L0,0 L17.5421934,0 C24.1863607,0 29.5916641,5.43715104 29.5916641,12.1204653 C29.5916641,17.2626461 26.354016,21.8197643 21.6083656,23.5330594 L34,36 Z" id="path-2"></path>
    </defs>
    <g id="首页-定稿" stroke="none" stroke-width="1" fill="none" fill-rule="evenodd">
        <g id="Home-定-new" transform="translate(-48.000000, -18.000000)">
            <g id="logo-36px" transform="translate(48.000000, 18.000000)">
                <g id="logo-1">
                    <mask id="mask-3" fill="white">
                        <use xlink:href="#path-2"></use>
                    </mask>
                    <use id="蒙版" fill="url(#radialGradient-1)" fill-rule="nonzero" xlink:href="#path-2"></use>
                    <path d="M11.7085656,18.7776871 C11.7085656,18.7776871 11.8169424,19.0611265 12.0132808,19.5547716 L12.193135,20.0040828 C13.296767,22.7443352 16.1027534,29.4150167 18.6938288,33.138421 C19.3240562,34.0440435 20.2212699,35.3119179 21.143544,36.6083954 L21.6328186,37.2956045 C23.3713314,39.7354769 25.0473684,42.0680736 25.0473684,42.0680736 L25.0473684,42.0680736 L16.6516357,45 C16.6516357,45 15.4908067,41.9134362 14.2445155,38.5220705 L14.030229,37.9382267 C13.9586549,37.7429629 13.8870024,37.5472228 13.8154721,37.3515256 L13.6014487,36.7650814 C12.9616824,35.0092485 12.3480706,33.2989267 11.9068883,32.0125005 C11.3994856,30.5330242 10.7408244,28.5891711 10.0995198,26.6889651 L9.90781779,26.1207207 C8.98540452,23.385446 8.13493487,20.8487513 7.87045292,20.059411 L7.82426244,19.9215398 C7.7992678,19.8469247 7.78609602,19.807585 7.78609602,19.807585 L7.78609602,19.807585 Z M15.9141552,5 L15.938754,5.00480182 C16.2061593,5.05910728 18.6009056,5.59819606 20.5241695,7.83525625 L20.9000693,8.30342212 C21.4079962,8.98125215 21.8673289,9.79325698 22.2241743,10.7646035 C23.0153226,12.9177422 23.0450879,14.8796173 22.8256816,16.4101724 L22.6953456,17.1493229 C22.3679272,18.7096897 21.832039,19.6644444 21.832039,19.6644444 C21.832039,19.6644444 17.3817877,17.4712218 14.1478549,17.5040482 C10.9139222,17.5368745 5.26995812,19.8324839 5.26995812,19.8324839 C5.26995812,19.8324839 4.37687495,18.9674992 3.65889972,17.0134398 C3.05429196,15.3677692 3.17103058,14.1198108 3.17103058,14.1198108 C3.17103058,14.1198108 9.15776921,12.0337762 11.9407125,9.79202879 C14.0018471,8.13169803 15.9141552,5 15.9141552,5 Z" id="形状结合" fill="#FFFFFF" mask="url(#mask-3)"></path>
                </g>
                <g id="文字" transform="translate(41.000000, 20.000000)" fill="#FFFFFF" fill-rule="nonzero">
                    <path d="M20.0219847,3.55555556 C21.7032845,3.55555556 23.0002872,4.03581189 23.9129929,4.99632457 C24.8256985,5.95683724 25.2820513,7.30964722 25.2820513,9.0547545 L25.2820513,10.3002545 L16.9441766,10.3002545 C16.9716264,11.4331668 17.3284737,12.3250715 18.0147186,12.9759683 C18.7009634,13.6268652 19.6308251,13.9523136 20.8043038,13.9523136 C21.435649,13.9523136 22.1270407,13.8326893 22.8784788,13.5934408 C23.6299169,13.3541922 24.2492528,13.0445764 24.7364866,12.6645933 L25.0555905,12.6645933 L25.0555905,15.0183772 C24.2389591,15.37725 23.4583557,15.630572 22.71378,15.7783432 C21.9692044,15.9261144 21.1783072,16 20.3410885,16 C18.3509785,16 16.7880559,15.4581723 15.6523207,14.374517 C14.5165855,13.2908617 13.9487179,11.7920397 13.9487179,9.87805108 C13.9487179,7.94295228 14.4994294,6.40542833 15.6008524,5.26547922 C16.7022753,4.12553011 18.1759861,3.55555556 20.0219847,3.55555556 Z M5.90098179,0 C7.71932768,0 9.11247101,0.363903191 10.0804118,1.09170957 C11.0483526,1.81951596 11.5323229,2.84854364 11.5323229,4.17879263 C11.5323229,5.27920802 11.2678677,6.22117752 10.7389572,7.00470114 C10.2100467,7.78822476 9.42359483,8.39589085 8.37960156,8.82769943 L13.9487179,15.5555556 L10.018187,15.5555556 L5.24762177,9.54854115 L3.18383376,9.54854115 L3.18383376,15.5555556 L0,15.5555556 L0,0 L5.90098179,0 Z M19.8264049,5.60324192 C18.9823238,5.60324192 18.3080882,5.86711903 17.8036983,6.39487324 C17.2993083,6.92262746 17.0196636,7.61574467 16.964764,8.47422486 L22.3174736,8.47422486 C22.3037487,7.55241416 22.0807192,6.84346433 21.6483849,6.34737537 C21.2160507,5.8512864 20.608724,5.60324192 19.8264049,5.60324192 Z M4.99872271,2.42369972 L3.16309217,2.42369972 L3.16309217,7.3128871 L4.83279001,7.3128871 C6.0565437,7.3128871 6.94497506,7.09698281 7.49808407,6.66517424 C8.05119309,6.23336567 8.32774759,5.56475885 8.32774759,4.65935378 C8.32774759,3.16891774 7.21807263,2.42369972 4.99872271,2.42369972 Z M53.9954587,10.3002545 C54.0229085,11.4331668 54.3797558,12.3250715 55.0660006,12.9759683 C55.7522454,13.6268652 56.6821072,13.9523136 57.8555858,13.9523136 C58.4869311,13.9523136 59.1783227,13.8326893 59.9297608,13.5934408 C60.6811989,13.3541922 61.3005349,13.0445764 61.7877687,12.6645933 L62.1068725,12.6645933 L62.1068725,15.0183772 C61.2902412,15.37725 60.5096377,15.630572 59.7650621,15.7783432 C59.0204864,15.9261144 58.2295893,16 57.3923706,16 C55.4022606,16 53.839338,15.4581723 52.7036028,14.374517 C51.5678676,13.2908617 51,11.7920397 51,9.87805108 C51,7.94295228 51.5507115,6.40542833 52.6521344,5.26547922 C53.7535574,4.12553011 55.2272681,3.55555556 57.0732667,3.55555556 C58.7545666,3.55555556 60.0515693,4.03581189 60.9642749,4.99632457 C61.8769805,5.95683724 62.3333333,7.30964722 62.3333333,9.0547545 L62.3333333,10.3002545 L53.9954587,10.3002545 Z M59.3687557,8.47422486 C59.3550308,7.55241416 59.1320012,6.84346433 58.699667,6.34737537 C58.2673327,5.8512864 57.6600061,5.60324192 56.877687,5.60324192 C56.0336058,5.60324192 55.3593703,5.86711903 54.8549803,6.39487324 C54.3505904,6.92262746 54.0709456,7.61574467 54.016046,8.47422486 L59.3687557,8.47422486 Z M38.3589744,15.5555556 L35.2930929,15.5555556 L35.2930929,9.09161116 C35.2930929,8.02123757 35.1297182,7.26363549 34.802969,6.8188049 C34.4762197,6.37397432 33.9548113,6.15155903 33.2387437,6.15155903 C32.7660001,6.15155903 32.2724001,6.25060334 31.7579438,6.44869196 C31.2434875,6.64678058 30.8298368,6.8987354 30.5169918,7.20455642 L30.5169918,15.5555556 L27.4615385,15.5555556 L27.4615385,3.87875278 L30.5169918,3.87875278 L30.5169918,5.24452167 C30.9827833,4.75103774 31.5737128,4.34617241 32.2897804,4.02992567 C33.005848,3.71367893 33.7045352,3.55555556 34.3858422,3.55555556 C35.6580788,3.55555556 36.6383266,3.92393088 37.3265857,4.66068153 C38.0148448,5.39743218 38.3589744,6.44695434 38.3589744,7.809248 L38.3589744,15.5555556 Z M42.0067476,6.36717752 L40.1025641,6.36717752 L40.1025641,4.60153257 L42.0067476,4.15453384 L42.0067476,1.4054917 L45.0350877,0.444444444 L45.0350877,11.2841635 C45.0350877,12.0440613 45.1995052,12.6363346 45.5283401,13.0609834 C45.857175,13.4856322 46.2892488,13.6979566 46.8245614,13.6979566 C47.0386865,13.6979566 47.2872245,13.6756066 47.5701754,13.6309068 C47.8531264,13.5862069 48.1934323,13.4968072 48.5910931,13.3627075 L49.2564103,15.3965517 C48.6752137,15.5902512 48.1666667,15.7392507 47.7307692,15.8435504 C47.2948718,15.9478501 46.88574,16 46.5033738,16 C45.0350877,16 43.9185785,15.5977011 43.1538462,14.7931034 C42.3891138,13.9885057 42.0067476,12.8188591 42.0067476,11.2841635 L42.0067476,6.36717752 Z M48.1093117,6.36717752 C47.8849903,6.36717752 46.6728895,6.36717752 44.4730094,6.36717752 L44.4730094,4.15453384 L49.1417004,4.15453384 L49.1417004,6.36717752 L48.1093117,6.36717752 Z M72.3589744,6.56088415 L72.1233849,6.56088415 C71.5839191,6.36905467 71.0034813,6.27313993 70.3820714,6.27313993 C69.2211957,6.28734952 68.2685948,6.69587527 67.5242686,7.49871719 L67.5242686,15.5555556 L64.5128205,15.5555556 L64.5128205,3.61949872 L67.5242686,3.61949872 L67.5242686,5.49516479 C68.7807458,4.20209197 69.9928366,3.55555556 71.1605409,3.55555556 C71.6180625,3.55555556 72.0175403,3.60528913 72.3589744,3.70475627 L72.3589744,6.56088415 Z M85,9.77777778 C85,11.696649 84.4778391,13.2134039 83.4335174,14.3280423 C82.3891957,15.4426808 80.9463829,16 79.1050788,16 C77.2775158,16 75.8415735,15.4444444 74.7972518,14.3333333 C73.7529301,13.2222222 73.2307692,11.7037037 73.2307692,9.77777778 C73.2307692,8.5643739 73.4763909,7.48324515 73.9676344,6.53439153 C74.4588778,5.58553792 75.1510845,4.85185185 76.0442543,4.33333333 C76.9374242,3.81481481 77.957699,3.55555556 79.1050788,3.55555556 C80.9463829,3.55555556 82.3891957,4.11287478 83.4335174,5.22751323 C84.4778391,6.34215168 85,7.85890653 85,9.77777778 Z M76.2297589,9.83068783 C76.2297589,11.0934744 76.4753806,12.0652557 76.966624,12.7460317 C77.4578674,13.4268078 78.1706857,13.7671958 79.1050788,13.7671958 C80.0326014,13.7671958 80.7454196,13.4285714 81.2435336,12.7513228 C81.7416476,12.0740741 81.9907046,11.1005291 81.9907046,9.83068783 C81.9907046,8.55379189 81.7416476,7.57495591 81.2435336,6.89417989 C80.7454196,6.21340388 80.0326014,5.87301587 79.1050788,5.87301587 C78.1706857,5.87301587 77.4578674,6.20634921 76.966624,6.87301587 C76.4753806,7.53968254 76.2297589,8.52557319 76.2297589,9.83068783 Z" id="形状结合"></path>
                </g>
            </g>
        </g>
    </g>
</svg>