<?xml version="1.0" encoding="UTF-8"?>
<svg width="86px" height="90px" viewBox="0 0 86 90" version="1.1" xmlns="http://www.w3.org/2000/svg" xmlns:xlink="http://www.w3.org/1999/xlink">
    <title>png-upcoming</title>
    <defs>
        <linearGradient x1="6.73336939%" y1="-1.67053871e-13%" x2="37.0779758%" y2="41.5833846%" id="linearGradient-1">
            <stop stop-color="#22D3FD" offset="0%"></stop>
            <stop stop-color="#979797" stop-opacity="0" offset="100%"></stop>
        </linearGradient>
        <linearGradient x1="93.2666306%" y1="100%" x2="68.2701583%" y2="85.0004641%" id="linearGradient-2">
            <stop stop-color="#B721FF" offset="0%"></stop>
            <stop stop-color="#979797" stop-opacity="0" offset="100%"></stop>
        </linearGradient>
        <path d="M43.6528529,2 C63.5221622,2 73.7712913,20.5215744 73.2747147,33.1825492 C72.7702102,46.0421073 61.3616817,53.043986 61.3616817,53.043986 L82,88 L2,88 L2,2 L43.6528529,2 Z" id="path-3"></path>
        <filter x="-6.2%" y="-5.8%" width="114.4%" height="111.6%" filterUnits="objectBoundingBox" id="filter-4">
            <feGaussianBlur stdDeviation="2" in="SourceAlpha" result="shadowBlurInner1"></feGaussianBlur>
            <feOffset dx="0" dy="2" in="shadowBlurInner1" result="shadowOffsetInner1"></feOffset>
            <feComposite in="shadowOffsetInner1" in2="SourceAlpha" operator="arithmetic" k2="-1" k3="1" result="shadowInnerInner1"></feComposite>
            <feColorMatrix values="0 0 0 0 0.171929825   0 0 0 0 0.143859649   0 0 0 0 0.2  0 0 0 1 0" type="matrix" in="shadowInnerInner1"></feColorMatrix>
        </filter>
    </defs>
    <g id="首页-定稿" stroke="none" stroke-width="1" fill="none" fill-rule="evenodd">
        <g id="Home-定-new" transform="translate(-1075.000000, -5178.000000)" fill-rule="nonzero">
            <g id="Part-5" transform="translate(0.000000, 4896.000000)">
                <g id="编组-10" transform="translate(64.000000, 244.000000)">
                    <g id="card-1" transform="translate(888.000000, 0.000000)">
                        <g id="路径" transform="translate(123.000000, 38.000000)">
                            <use fill="#1A182E" xlink:href="#path-3"></use>
                            <use fill="black" fill-opacity="1" filter="url(#filter-4)" xlink:href="#path-3"></use>
                            <path stroke="url(#linearGradient-1)" stroke-width="2" d="M43.6528529,1 C52.8114149,1 59.9945984,4.80295966 65.1004952,10.1778709 C71.4453252,16.856991 74.5582239,25.9736539 74.273946,33.2217509 C73.8329176,44.4633359 65.3872567,51.4093048 62.6990886,53.342292 L62.6990886,53.342292 L83.7516928,89 L1,89 L1,1 Z"></path>
                            <path stroke="url(#linearGradient-2)" stroke-width="2" d="M43.6528529,1 C52.8114149,1 59.9945984,4.80295966 65.1004952,10.1778709 C71.4453252,16.856991 74.5582239,25.9736539 74.273946,33.2217509 C73.8329176,44.4633359 65.3872567,51.4093048 62.6990886,53.342292 L62.6990886,53.342292 L83.7516928,89 L1,89 L1,1 Z"></path>
                        </g>
                    </g>
                </g>
            </g>
        </g>
    </g>
</svg>