<?xml version="1.0" encoding="UTF-8"?>
<svg width="34px" height="36px" viewBox="0 0 34 36" version="1.1" xmlns="http://www.w3.org/2000/svg" xmlns:xlink="http://www.w3.org/1999/xlink">
    <title>logo-1@3x</title>
    <defs>
        <radialGradient cx="100%" cy="100%" fx="100%" fy="100%" r="143.257939%" gradientTransform="translate(1.000000,1.000000),scale(1.000000,0.944444),rotate(-132.344951),translate(-1.000000,-1.000000)" id="radialGradient-1">
            <stop stop-color="#21D4FD" offset="0%"></stop>
            <stop stop-color="#56B8FE" offset="23.3545722%"></stop>
            <stop stop-color="#7B38FF" offset="71.5311128%"></stop>
            <stop stop-color="#B721FF" offset="100%"></stop>
        </radialGradient>
        <path d="M34,36 L28.4089954,36 L0,36 L0,0 L17.5421934,0 C24.1863607,0 29.5916641,5.43715104 29.5916641,12.1204653 C29.5916641,17.2626461 26.354016,21.8197643 21.6083656,23.5330594 L34,36 Z" id="path-2"></path>
    </defs>
    <g id="首页-定稿" stroke="none" stroke-width="1" fill="none" fill-rule="evenodd">
        <g id="Home-定-new" transform="translate(-120.000000, -6404.000000)">
            <g id="Footer" transform="translate(0.000000, 6382.000000)">
                <g id="编组-2" transform="translate(0.000000, 22.000000)">
                    <g id="logo-1" transform="translate(120.000000, 0.000000)">
                        <mask id="mask-3" fill="white">
                            <use xlink:href="#path-2"></use>
                        </mask>
                        <use id="蒙版" fill="url(#radialGradient-1)" fill-rule="nonzero" xlink:href="#path-2"></use>
                        <path d="M11.7085656,18.7776871 C11.7085656,18.7776871 11.8169424,19.0611265 12.0132808,19.5547716 L12.193135,20.0040828 C13.296767,22.7443352 16.1027534,29.4150167 18.6938288,33.138421 C19.3240562,34.0440435 20.2212699,35.3119179 21.143544,36.6083954 L21.6328186,37.2956045 C23.3713314,39.7354769 25.0473684,42.0680736 25.0473684,42.0680736 L25.0473684,42.0680736 L16.6516357,45 C16.6516357,45 15.4908067,41.9134362 14.2445155,38.5220705 L14.030229,37.9382267 C13.9586549,37.7429629 13.8870024,37.5472228 13.8154721,37.3515256 L13.6014487,36.7650814 C12.9616824,35.0092485 12.3480706,33.2989267 11.9068883,32.0125005 C11.3994856,30.5330242 10.7408244,28.5891711 10.0995198,26.6889651 L9.90781779,26.1207207 C8.98540452,23.385446 8.13493487,20.8487513 7.87045292,20.059411 L7.82426244,19.9215398 C7.7992678,19.8469247 7.78609602,19.807585 7.78609602,19.807585 L7.78609602,19.807585 Z M15.9141552,5 L15.938754,5.00480182 C16.2061593,5.05910728 18.6009056,5.59819606 20.5241695,7.83525625 L20.9000693,8.30342212 C21.4079962,8.98125215 21.8673289,9.79325698 22.2241743,10.7646035 C23.0153226,12.9177422 23.0450879,14.8796173 22.8256816,16.4101724 L22.6953456,17.1493229 C22.3679272,18.7096897 21.832039,19.6644444 21.832039,19.6644444 C21.832039,19.6644444 17.3817877,17.4712218 14.1478549,17.5040482 C10.9139222,17.5368745 5.26995812,19.8324839 5.26995812,19.8324839 C5.26995812,19.8324839 4.37687495,18.9674992 3.65889972,17.0134398 C3.05429196,15.3677692 3.17103058,14.1198108 3.17103058,14.1198108 C3.17103058,14.1198108 9.15776921,12.0337762 11.9407125,9.79202879 C14.0018471,8.13169803 15.9141552,5 15.9141552,5 Z" id="形状结合" fill="#FFFFFF" mask="url(#mask-3)"></path>
                    </g>
                </g>
            </g>
        </g>
    </g>
</svg>