<?xml version="1.0" encoding="UTF-8"?>
<svg width="1440px" height="748px" viewBox="0 0 1440 748" version="1.1" xmlns="http://www.w3.org/2000/svg" xmlns:xlink="http://www.w3.org/1999/xlink">
    <title>png_part6</title>
    <defs>
        <linearGradient x1="50%" y1="0%" x2="50%" y2="100%" id="linearGradient-1">
            <stop stop-color="#030305" offset="0%"></stop>
            <stop stop-color="#150523" offset="100%"></stop>
        </linearGradient>
        <rect id="path-2" x="0" y="0" width="1440" height="748"></rect>
        <radialGradient cx="48.8594447%" cy="51.0963806%" fx="48.8594447%" fy="51.0963806%" r="58.2512442%" gradientTransform="translate(0.488594,0.510964),scale(0.960833,1.000000),rotate(90.000000),translate(-0.488594,-0.510964)" id="radialGradient-4">
            <stop stop-color="#979797" offset="0%"></stop>
            <stop stop-color="#000000" stop-opacity="0" offset="100%"></stop>
        </radialGradient>
    </defs>
    <g id="首页-定稿" stroke="none" stroke-width="1" fill="none" fill-rule="evenodd">
        <g id="Home-定-new" transform="translate(0.000000, -5634.000000)">
            <g id="编组" transform="translate(0.000000, 5634.000000)">
                <mask id="mask-3" fill="white">
                    <use xlink:href="#path-2"></use>
                </mask>
                <use id="蒙版" fill="url(#linearGradient-1)" xlink:href="#path-2"></use>
                <path d="M432,784 L289,784 L289,927 L288,927 L288,784 L145,784 L145,927 L144,927 L144,784 L120,784 L120,783 L144,783 L144,640 L120,640 L120,639 L144,639 L144,496 L120,496 L120,495 L144,495 L144,352 L120,352 L120,351 L144,351 L144,208 L120,208 L120,207 L144,207 L144,64 L120,64 L120,63 L144,63 L144,-80 L120,-80 L120,-81 L144,-81 L144,-224 L120,-224 L120,-225 L1320,-225 L1320,-224 L1297,-224 L1297,-81 L1320,-81 L1320,-80 L1297,-80 L1297,63 L1320,63 L1320,64 L1297,64 L1297,207 L1320,207 L1320,208 L1297,208 L1297,351 L1320,351 L1320,352 L1297,352 L1297,495 L1320,495 L1320,496 L1297,496 L1297,639 L1320,639 L1320,640 L1297,640 L1297,783 L1320,783 L1320,784 L1297,784 L1297,927 L1320,927 L1320,928 L120,928 L120,927 L432,927 L432,784 Z M288,640 L145,640 L145,783 L288,783 L288,640 Z M432,640 L289,640 L289,783 L432,783 L432,640 Z M576,640 L433,640 L433,783 L576,783 L576,640 Z M720,640 L577,640 L577,783 L720,783 L720,640 Z M864,640 L721,640 L721,783 L864,783 L864,640 Z M1008,640 L865,640 L865,783 L1008,783 L1008,640 Z M1152,640 L1009,640 L1009,783 L1152,783 L1152,640 Z M1296,640 L1153,640 L1153,783 L1296,783 L1296,640 Z M288,496 L145,496 L145,639 L288,639 L288,496 Z M432,496 L289,496 L289,639 L432,639 L432,496 Z M576,496 L433,496 L433,639 L576,639 L576,496 Z M720,496 L577,496 L577,639 L720,639 L720,496 Z M864,496 L721,496 L721,639 L864,639 L864,496 Z M1008,496 L865,496 L865,639 L1008,639 L1008,496 Z M1152,496 L1009,496 L1009,639 L1152,639 L1152,496 Z M1296,496 L1153,496 L1153,639 L1296,639 L1296,496 Z M288,352 L145,352 L145,495 L288,495 L288,352 Z M432,352 L289,352 L289,495 L432,495 L432,352 Z M576,352 L433,352 L433,495 L576,495 L576,352 Z M720,352 L577,352 L577,495 L720,495 L720,352 Z M864,352 L721,352 L721,495 L864,495 L864,352 Z M1008,352 L865,352 L865,495 L1008,495 L1008,352 Z M1152,352 L1009,352 L1009,495 L1152,495 L1152,352 Z M1296,352 L1153,352 L1153,495 L1296,495 L1296,352 Z M288,208 L145,208 L145,351 L288,351 L288,208 Z M432,208 L289,208 L289,351 L432,351 L432,208 Z M576,208 L433,208 L433,351 L576,351 L576,208 Z M720,208 L577,208 L577,351 L720,351 L720,208 Z M864,208 L721,208 L721,351 L864,351 L864,208 Z M1008,208 L865,208 L865,351 L1008,351 L1008,208 Z M1152,208 L1009,208 L1009,351 L1152,351 L1152,208 Z M1296,208 L1153,208 L1153,351 L1296,351 L1296,208 Z M288,64 L145,64 L145,207 L288,207 L288,64 Z M432,64 L289,64 L289,207 L432,207 L432,64 Z M576,64 L433,64 L433,207 L576,207 L576,64 Z M720,64 L577,64 L577,207 L720,207 L720,64 Z M864,64 L721,64 L721,207 L864,207 L864,64 Z M1008,64 L865,64 L865,207 L1008,207 L1008,64 Z M1152,64 L1009,64 L1009,207 L1152,207 L1152,64 Z M1296,64 L1153,64 L1153,207 L1296,207 L1296,64 Z M288,-80 L145,-80 L145,63 L288,63 L288,-80 Z M432,-80 L289,-80 L289,63 L432,63 L432,-80 Z M576,-80 L433,-80 L433,63 L576,63 L576,-80 Z M720,-80 L577,-80 L577,63 L720,63 L720,-80 Z M864,-80 L721,-80 L721,63 L864,63 L864,-80 Z M1008,-80 L865,-80 L865,63 L1008,63 L1008,-80 Z M1152,-80 L1009,-80 L1009,63 L1152,63 L1152,-80 Z M1296,-80 L1153,-80 L1153,63 L1296,63 L1296,-80 Z M288,-224 L145,-224 L145,-81 L288,-81 L288,-224 Z M432,-224 L289,-224 L289,-81 L432,-81 L432,-224 Z M576,-224 L433,-224 L433,-81 L576,-81 L576,-224 Z M720,-224 L577,-224 L577,-81 L720,-81 L720,-224 Z M864,-224 L721,-224 L721,-81 L864,-81 L864,-224 Z M1008,-224 L865,-224 L865,-81 L1008,-81 L1008,-224 Z M1152,-224 L1009,-224 L1009,-81 L1152,-81 L1152,-224 Z M1296,-224 L1153,-224 L1153,-81 L1296,-81 L1296,-224 Z M576,927 L576,784 L433,784 L433,927 L576,927 Z M720,927 L720,784 L577,784 L577,927 L720,927 Z M864,927 L864,784 L721,784 L721,927 L864,927 Z M1008,927 L1008,784 L865,784 L865,927 L1008,927 Z M1152,927 L1152,784 L1009,784 L1009,927 L1152,927 Z M1296,927 L1296,784 L1153,784 L1153,927 L1296,927 Z" id="纹理" fill="url(#radialGradient-4)" opacity="0.595424107" mask="url(#mask-3)"></path>
            </g>
        </g>
    </g>
</svg>