<?xml version="1.0" encoding="UTF-8"?>
<svg width="1440px" height="684px" viewBox="0 0 1440 684" version="1.1" xmlns="http://www.w3.org/2000/svg" xmlns:xlink="http://www.w3.org/1999/xlink">
    <title>png_part4</title>
    <defs>
        <linearGradient x1="50%" y1="100%" x2="50%" y2="0%" id="linearGradient-1">
            <stop stop-color="#0F0218" offset="0%"></stop>
            <stop stop-color="#150523" offset="100%"></stop>
        </linearGradient>
        <polygon id="path-2" points="0 0 1440 0 1440 684 -4.04421635e-12 684"></polygon>
        <radialGradient cx="50%" cy="15.6790031%" fx="50%" fy="15.6790031%" r="22.6094128%" gradientTransform="translate(0.500000,0.156790),scale(0.960833,1.000000),rotate(90.000000),translate(-0.500000,-0.156790)" id="radialGradient-4">
            <stop stop-color="#767676" offset="0%"></stop>
            <stop stop-color="#767676" stop-opacity="0" offset="100%"></stop>
        </radialGradient>
    </defs>
    <g id="首页-定稿" stroke="none" stroke-width="1" fill="none" fill-rule="evenodd">
        <g id="Home-定-new" transform="translate(0.000000, -4212.000000)">
            <g id="编组" transform="translate(0.000000, 4212.000000)">
                <mask id="mask-3" fill="white">
                    <use xlink:href="#path-2"></use>
                </mask>
                <use id="base" fill="url(#linearGradient-1)" xlink:href="#path-2"></use>
                <path d="M432,956 L289,956 L289,1099 L288,1099 L288,956 L145,956 L145,1099 L144,1099 L144,956 L120,956 L120,955 L144,955 L144,812 L120,812 L120,811 L144,811 L144,668 L120,668 L120,667 L144,667 L144,524 L120,524 L120,523 L144,523 L144,380 L120,380 L120,379 L144,379 L144,236 L120,236 L120,235 L144,235 L144,92 L120,92 L120,91 L144,91 L144,-52 L120,-52 L120,-53 L1320,-53 L1320,-52 L1297,-52 L1297,91 L1320,91 L1320,92 L1297,92 L1297,235 L1320,235 L1320,236 L1297,236 L1297,379 L1320,379 L1320,380 L1297,380 L1297,523 L1320,523 L1320,524 L1297,524 L1297,667 L1320,667 L1320,668 L1297,668 L1297,811 L1320,811 L1320,812 L1297,812 L1297,955 L1320,955 L1320,956 L1297,956 L1297,1099 L1320,1099 L1320,1100 L120,1100 L120,1099 L432,1099 L432,956 Z M288,812 L145,812 L145,955 L288,955 L288,812 Z M432,812 L289,812 L289,955 L432,955 L432,812 Z M576,812 L433,812 L433,955 L576,955 L576,812 Z M720,812 L577,812 L577,955 L720,955 L720,812 Z M864,812 L721,812 L721,955 L864,955 L864,812 Z M1008,812 L865,812 L865,955 L1008,955 L1008,812 Z M1152,812 L1009,812 L1009,955 L1152,955 L1152,812 Z M1296,812 L1153,812 L1153,955 L1296,955 L1296,812 Z M288,668 L145,668 L145,811 L288,811 L288,668 Z M432,668 L289,668 L289,811 L432,811 L432,668 Z M576,668 L433,668 L433,811 L576,811 L576,668 Z M720,668 L577,668 L577,811 L720,811 L720,668 Z M864,668 L721,668 L721,811 L864,811 L864,668 Z M1008,668 L865,668 L865,811 L1008,811 L1008,668 Z M1152,668 L1009,668 L1009,811 L1152,811 L1152,668 Z M1296,668 L1153,668 L1153,811 L1296,811 L1296,668 Z M288,524 L145,524 L145,667 L288,667 L288,524 Z M432,524 L289,524 L289,667 L432,667 L432,524 Z M576,524 L433,524 L433,667 L576,667 L576,524 Z M720,524 L577,524 L577,667 L720,667 L720,524 Z M864,524 L721,524 L721,667 L864,667 L864,524 Z M1008,524 L865,524 L865,667 L1008,667 L1008,524 Z M1152,524 L1009,524 L1009,667 L1152,667 L1152,524 Z M1296,524 L1153,524 L1153,667 L1296,667 L1296,524 Z M288,380 L145,380 L145,523 L288,523 L288,380 Z M432,380 L289,380 L289,523 L432,523 L432,380 Z M576,380 L433,380 L433,523 L576,523 L576,380 Z M720,380 L577,380 L577,523 L720,523 L720,380 Z M864,380 L721,380 L721,523 L864,523 L864,380 Z M1008,380 L865,380 L865,523 L1008,523 L1008,380 Z M1152,380 L1009,380 L1009,523 L1152,523 L1152,380 Z M1296,380 L1153,380 L1153,523 L1296,523 L1296,380 Z M288,236 L145,236 L145,379 L288,379 L288,236 Z M432,236 L289,236 L289,379 L432,379 L432,236 Z M576,236 L433,236 L433,379 L576,379 L576,236 Z M720,236 L577,236 L577,379 L720,379 L720,236 Z M864,236 L721,236 L721,379 L864,379 L864,236 Z M1008,236 L865,236 L865,379 L1008,379 L1008,236 Z M1152,236 L1009,236 L1009,379 L1152,379 L1152,236 Z M1296,236 L1153,236 L1153,379 L1296,379 L1296,236 Z M288,92 L145,92 L145,235 L288,235 L288,92 Z M432,92 L289,92 L289,235 L432,235 L432,92 Z M576,92 L433,92 L433,235 L576,235 L576,92 Z M720,92 L577,92 L577,235 L720,235 L720,92 Z M864,92 L721,92 L721,235 L864,235 L864,92 Z M1008,92 L865,92 L865,235 L1008,235 L1008,92 Z M1152,92 L1009,92 L1009,235 L1152,235 L1152,92 Z M1296,92 L1153,92 L1153,235 L1296,235 L1296,92 Z M288,-52 L145,-52 L145,91 L288,91 L288,-52 Z M432,-52 L289,-52 L289,91 L432,91 L432,-52 Z M576,-52 L433,-52 L433,91 L576,91 L576,-52 Z M720,-52 L577,-52 L577,91 L720,91 L720,-52 Z M864,-52 L721,-52 L721,91 L864,91 L864,-52 Z M1008,-52 L865,-52 L865,91 L1008,91 L1008,-52 Z M1152,-52 L1009,-52 L1009,91 L1152,91 L1152,-52 Z M1296,-52 L1153,-52 L1153,91 L1296,91 L1296,-52 Z M576,1099 L576,956 L433,956 L433,1099 L576,1099 Z M720,1099 L720,956 L577,956 L577,1099 L720,1099 Z M864,1099 L864,956 L721,956 L721,1099 L864,1099 Z M1008,1099 L1008,956 L865,956 L865,1099 L1008,1099 Z M1152,1099 L1152,956 L1009,956 L1009,1099 L1152,1099 Z M1296,1099 L1296,956 L1153,956 L1153,1099 L1296,1099 Z" id="形状结合" fill="url(#radialGradient-4)" opacity="0.351943836" mask="url(#mask-3)"></path>
            </g>
        </g>
    </g>
</svg>