<?xml version="1.0" encoding="UTF-8"?>
<svg width="1260px" height="248px" viewBox="0 0 1260 248" version="1.1" xmlns="http://www.w3.org/2000/svg" xmlns:xlink="http://www.w3.org/1999/xlink">
    <title>line</title>
    <defs>
        <linearGradient x1="100%" y1="50%" x2="-1.70349845e-13%" y2="50%" id="linearGradient-1">
            <stop stop-color="#B721FF" offset="0%"></stop>
            <stop stop-color="#21D4FD" offset="100%"></stop>
        </linearGradient>
    </defs>
    <g id="首页-定稿" stroke="none" stroke-width="1" fill="none" fill-rule="evenodd">
        <g id="Home-定-new" transform="translate(-90.000000, -4488.000000)" fill="url(#linearGradient-1)">
            <g id="Part-4" transform="translate(0.000000, 4212.000000)">
                <g id="编组-2" transform="translate(90.000000, 120.000000)">
                    <g id="line" transform="translate(0.000000, 156.000000)">
                        <path d="M313,0 C322.280923,0 329.824796,7.43719564 329.996992,16.6769603 L330,17 L330,231 C330,234.785452 333.004783,237.869099 336.75935,237.995941 L337,238 L613,238 C616.785452,238 619.869099,234.995217 619.995941,231.24065 L620,231 L620,17 C620,7.71907696 627.437196,0.175204042 636.67696,0.00300785127 L637,0 L913,0 C922.280923,0 929.824796,7.43719564 929.996992,16.6769603 L930,17 L930,231 C930,234.785452 933.004783,237.869099 936.75935,237.995941 L937,238 L1213,238 C1216.78545,238 1219.8691,234.995217 1219.99594,231.24065 L1220,231 L1220,17 C1220,7.71907696 1227.4372,0.175204042 1236.67696,0.00300785127 L1237,0 L1260,0 L1260,10 L1237,10 C1233.21455,10 1230.1309,13.0047834 1230.00406,16.7593502 L1230,17 L1230,231 C1230,240.280923 1222.5628,247.824796 1213.32304,247.996992 L1213,248 L937,248 C927.719077,248 920.175204,240.562804 920.003008,231.32304 L920,231 L920,17 C920,13.2145483 916.995217,10.1309013 913.24065,10.004059 L913,10 L637,10 C633.214548,10 630.130901,13.0047834 630.004059,16.7593502 L630,17 L630,231 C630,240.280923 622.562804,247.824796 613.32304,247.996992 L613,248 L337,248 C327.719077,248 320.175204,240.562804 320.003008,231.32304 L320,231 L320,17 C320,13.2145483 316.995217,10.1309013 313.24065,10.004059 L313,10 L47,10 C43.2145483,10 40.1309013,13.0047834 40.004059,16.7593502 L40,17 L40,231 C40,240.280923 32.5628044,247.824796 23.3230397,247.996992 L23,248 L0,248 L0,238 L23,238 C26.7854517,238 29.8690987,234.995217 29.995941,231.24065 L30,231 L30,17 C30,7.71907696 37.4371956,0.175204042 46.6769603,0.00300785127 L47,0 L313,0 Z"></path>
                    </g>
                </g>
            </g>
        </g>
    </g>
</svg>