<?xml version="1.0" encoding="UTF-8"?>
<svg width="32px" height="32px" viewBox="0 0 32 32" version="1.1" xmlns="http://www.w3.org/2000/svg" xmlns:xlink="http://www.w3.org/1999/xlink">
    <title>twitter</title>
    <g id="首页-定稿" stroke="none" stroke-width="1" fill="none" fill-rule="evenodd">
        <g id="Home-定-new" transform="translate(-1176.000000, -6414.000000)" fill-rule="nonzero">
            <g id="Footer" transform="translate(0.000000, 6382.000000)">
                <g id="编组-2" transform="translate(0.000000, 22.000000)">
                    <g id="social" transform="translate(1120.000000, 10.000000)">
                        <g id="twitter" transform="translate(56.000000, 0.000000)">
                            <path d="M16,0 C24.8365604,0 32,7.16344216 32,16 C32,24.8365578 24.8365604,32 16,32 C7.16343957,32 0,24.8365578 0,16 C0,7.16344216 7.16343957,0 16,0 Z" id="Combined-Shape" fill="#3984FC"></path>
                            <path d="M20.0925034,9.51351351 C17.9365388,9.51351351 16.1882387,11.2735135 16.1882387,13.4431827 C16.1882387,13.7516281 16.2225686,14.0515027 16.2895274,14.3392432 C13.0452169,14.1750746 10.1683304,12.6111135 8.2432,10.2332627 C7.90759524,10.8138638 7.71449168,11.4887005 7.71449168,12.2084497 C7.71449168,13.5719784 8.40367481,14.7755762 9.45161859,15.4797492 C8.81141968,15.4599438 8.20976086,15.2827416 7.68364368,14.98816 C7.68275286,15.0045405 7.68275286,15.0210076 7.68275286,15.0382011 C7.68275286,16.9417427 9.02857081,18.530733 10.8146015,18.8910962 C10.4867702,18.9809211 10.1416925,19.0293362 9.78552303,19.0293362 C9.53404195,19.0293362 9.28944346,19.0042292 9.05172757,18.9584173 C9.54861578,20.5197751 10.9896502,21.6560432 12.6985202,21.688 C11.3621751,22.7421924 9.67913341,23.3703178 7.85010941,23.3703178 C7.53515157,23.3703178 7.22440389,23.3521384 6.91891892,23.3158659 C8.64657297,24.4304519 10.6978482,25.0810811 12.9027978,25.0810811 C20.0830305,25.0810811 24.0096424,19.0924281 24.0096424,13.8994076 C24.0096424,13.7292108 24.0062417,13.559827 23.9984692,13.3913427 C24.7606832,12.8366616 25.4232294,12.1445449 25.9459459,11.3564886 C25.2463991,11.6693276 24.4937384,11.8801211 23.7041574,11.9751611 C24.5100125,11.4887005 25.1288363,10.7188238 25.4206383,9.80124541 C24.6662772,10.2513557 23.8311118,10.5788714 22.9419425,10.7551827 C22.2296035,9.99125622 21.2150979,9.51351351 20.0925034,9.51351351 Z" id="Combined-Shape-path" fill="#FFFFFF"></path>
                        </g>
                    </g>
                </g>
            </g>
        </g>
    </g>
</svg>